<?xml version="1.0" encoding="UTF-8"?>
<svg version="1.1" xmlns="http://www.w3.org/2000/svg" width="500" height="500">
<path d="M0 0 C165 0 330 0 500 0 C500 165 500 330 500 500 C335 500 170 500 0 500 C0 335 0 170 0 0 Z " fill="#FEFEFE" transform="translate(0,0)"/>
<path d="M0 0 C0.59683594 0.4846875 1.19367188 0.969375 1.80859375 1.46875 C1.14859375 1.79875 0.48859375 2.12875 -0.19140625 2.46875 C-2.09294964 1.81190773 -3.96361125 1.06512481 -5.81640625 0.28125 C-32.50138132 -10.35127614 -61.18756043 -10.58419128 -87.640625 0.78125 C-118.15701109 15.28408695 -135.79584578 37.47984882 -148.19140625 68.46875 C-161.06140625 68.46875 -173.93140625 68.46875 -187.19140625 68.46875 C-183.29544712 41.19703611 -163.57965668 16.46894829 -142.16015625 0.27734375 C-100.93812118 -29.67498506 -41.04877835 -31.7167381 0 0 Z " fill="#163C6C" transform="translate(309.19140625,151.53125)"/>
<path d="M0 0 C13.2 0 26.4 0 40 0 C42.97 5.61 45.94 11.22 49 17 C51.61223373 20.55100522 54.09475803 23.74500074 57 27 C57.67417969 27.81597656 58.34835938 28.63195312 59.04296875 29.47265625 C76.21457825 49.70950752 102.17136227 61.98677071 128.50244141 64.21142578 C147.12615887 65.21938256 163.71229486 61.60243207 181 55 C182.99616309 54.32193115 184.99476973 53.65076572 187 53 C176.00952191 65.084058 158.02485045 71.05578396 142.75 75.3125 C141.83919678 75.56733154 140.92839355 75.82216309 139.98999023 76.0847168 C123.39473529 80.4971801 105.80725054 79.93609304 89 77 C87.98292969 76.84015625 86.96585937 76.6803125 85.91796875 76.515625 C69.13754656 73.32756019 53.58364584 65.11947486 40 55 C39.1028125 54.35546875 38.205625 53.7109375 37.28125 53.046875 C20.40197347 40.33400217 8.25190364 22.26980849 0 3 C0 2.01 0 1.02 0 0 Z " fill="#173C6C" transform="translate(126,292)"/>
<path d="M0 0 C0.65764343 0.00270905 1.31528687 0.00541809 1.99285889 0.00820923 C11.99608565 0.0706743 20.75062326 0.74566051 30.125 4.4375 C31.15753906 4.81132812 32.19007813 5.18515625 33.25390625 5.5703125 C60.17762839 15.95468554 78.32735323 35.69352596 89.91015625 61.453125 C91.125 64.4375 91.125 64.4375 91.125 66.4375 C80.565 66.4375 70.005 66.4375 59.125 66.4375 C56.815 61.8175 54.505 57.1975 52.125 52.4375 C38.7510683 32.15370359 20.82201404 19.13530239 -2.875 13.4375 C-20.77765373 10.62261734 -38.60787559 11.46896306 -55.04296875 19.60546875 C-56.96386392 20.47785824 -58.81813334 20.98599268 -60.875 21.4375 C-57.51860284 17.6711612 -53.79672529 15.41311487 -49.4375 13 C-48.72811279 12.60603027 -48.01872559 12.21206055 -47.2878418 11.80615234 C-32.20822653 3.60303092 -17.14889292 -0.13679717 0 0 Z " fill="#504F4D" transform="translate(262.875,153.5625)"/>
<path d="M0 0 C2.28147634 0.08449912 4.55600122 0.22198153 6.83465576 0.36236572 C8.39242582 0.4176012 9.95038384 0.46778128 11.50848389 0.51275635 C15.30937883 0.6334373 19.10119123 0.82280016 22.89715576 1.04986572 C11.89788991 24.00425301 -6.37592288 40.99666236 -30.3225708 49.87261963 C-34.87228647 51.42479336 -39.46657389 52.7819655 -44.10284424 54.04986572 C-45.00377808 54.3192395 -45.00377808 54.3192395 -45.9229126 54.59405518 C-69.34661342 59.49180962 -95.52511624 53.69491975 -115.60284424 41.23736572 C-119.93449407 38.38656606 -119.93449407 38.38656606 -121.10284424 36.04986572 C-120.56917236 36.23162354 -120.03550049 36.41338135 -119.48565674 36.60064697 C-117.02870309 37.42955002 -114.56678088 38.24195771 -112.10284424 39.04986572 C-111.27526611 39.32443604 -110.44768799 39.59900635 -109.59503174 39.88189697 C-108.77260986 40.14357666 -107.95018799 40.40525635 -107.10284424 40.67486572 C-106.36034424 40.91463135 -105.61784424 41.15439697 -104.85284424 41.40142822 C-82.55493363 46.65917419 -58.14821038 42.70667404 -38.55596924 31.01470947 C-30.45170517 25.6732627 -20.01264685 18.28051508 -15.79107666 9.24102783 C-11.99480191 1.47264955 -8.32304894 -0.09211152 0 0 Z " fill="#4F4E4D" transform="translate(326.10284423828125,290.95013427734375)"/>
<path d="M0 0 C3.33316277 -0.08811914 6.66602047 -0.14076197 10 -0.1875 C10.93457031 -0.21263672 11.86914062 -0.23777344 12.83203125 -0.26367188 C19.19068626 -0.33037105 25.58521688 -0.10556416 30.55834961 4.41723633 C35.01848728 9.53585423 35.29662936 13.83116889 35.2109375 20.34375 C34.82263111 25.23353419 32.55718756 27.61805216 29.0625 30.75 C24.79012061 33.88889098 21.80105718 34.12667254 16.578125 34.09765625 C15.55332031 34.09443359 14.52851562 34.09121094 13.47265625 34.08789062 C12.40917969 34.07951172 11.34570312 34.07113281 10.25 34.0625 C9.17105469 34.05798828 8.09210937 34.05347656 6.98046875 34.04882812 C4.32025617 34.03705727 1.66015635 34.02061399 -1 34 C-0.01 33.34 0.98 32.68 2 32 C2.451547 28.92807508 2.451547 28.92807508 2.36328125 25.3125 C2.36377975 24.65419189 2.36427826 23.99588379 2.36479187 23.31762695 C2.36245104 21.92558779 2.3527218 20.53354443 2.33618164 19.14160156 C2.31258934 17.0080795 2.3156196 14.87580681 2.32226562 12.7421875 C2.84873198 5.7770068 2.84873198 5.7770068 0 0 Z " fill="#26436A" transform="translate(51,238)"/>
<path d="M0 0 C3.49971199 -0.1173794 6.99890955 -0.18763961 10.5 -0.25 C11.48226563 -0.28351563 12.46453125 -0.31703125 13.4765625 -0.3515625 C19.86770491 -0.43677773 24.69751812 0.2620241 30 4 C34.86708646 9.11668064 35.34316844 13.44316466 35.2890625 20.26953125 C34.88904866 24.04804039 33.47556884 26.17077847 31 29 C30.54625 29.5775 30.0925 30.155 29.625 30.75 C24.11031419 34.99206601 17.19648083 34.23523129 10.625 34.125 C9.60277344 34.11597656 8.58054687 34.10695313 7.52734375 34.09765625 C5.01798478 34.0742043 2.50911664 34.04138355 0 34 C0.66 33.34 1.32 32.68 2 32 C2.31234892 28.9235426 2.31234892 28.9235426 2.265625 25.3125 C2.26753845 24.65419189 2.2694519 23.99588379 2.27142334 23.31762695 C2.2727845 21.9256146 2.26909283 20.53358953 2.26074219 19.14160156 C2.250041 17.00817411 2.26063906 14.87558869 2.2734375 12.7421875 C2.27211589 11.39062314 2.26955347 10.0390593 2.265625 8.6875 C2.26336914 7.45386719 2.26111328 6.22023437 2.25878906 4.94921875 C2.30769767 1.87930422 2.30769767 1.87930422 0 0 Z " fill="#163B6B" transform="translate(317,238)"/>
<path d="M0 0 C3.47887472 -0.11766716 6.9572277 -0.18773315 10.4375 -0.25 C11.41138672 -0.28351563 12.38527344 -0.31703125 13.38867188 -0.3515625 C20.04357496 -0.4405913 25.27685517 0.46277317 31 4 C34.90995638 8.00770529 36.1480786 11.28326415 36.25 16.8125 C36.19145877 21.28114704 35.59380225 24.24345881 33 28 C28.4664458 32.29494608 24.16563136 34.27197094 17.91796875 34.1953125 C16.98662109 34.18886719 16.05527344 34.18242187 15.09570312 34.17578125 C14.13599609 34.15902344 13.17628906 34.14226562 12.1875 34.125 C11.20845703 34.11597656 10.22941406 34.10695313 9.22070312 34.09765625 C6.81354939 34.07417182 4.40690257 34.0413284 2 34 C2.33 33.34 2.66 32.68 3 32 C3.23400556 27.71698921 3.22835997 23.43024004 3.24023438 19.14160156 C3.2499632 17.00807041 3.28099756 14.87549344 3.3125 12.7421875 C3.31902791 11.39063073 3.32427921 10.03906706 3.328125 8.6875 C3.34214355 6.83705078 3.34214355 6.83705078 3.35644531 4.94921875 C3.18000488 3.48935547 3.18000488 3.48935547 3 2 C2.01 1.34 1.02 0.68 0 0 Z " fill="#27436A" transform="translate(391,238)"/>
<path d="M0 0 C3.20815845 -0.08774066 6.41600462 -0.14063706 9.625 -0.1875 C10.52863281 -0.21263672 11.43226563 -0.23777344 12.36328125 -0.26367188 C17.66482254 -0.32171795 21.45985656 -0.07211599 26 3 C28.33909307 6.5086396 28.41291057 7.87089433 28 12 C26.33237678 15.49406769 25.25993978 16.82670681 22 19 C22.47050781 19.60328125 22.94101562 20.2065625 23.42578125 20.828125 C24.04839844 21.62734375 24.67101562 22.4265625 25.3125 23.25 C26.23482422 24.43335938 26.23482422 24.43335938 27.17578125 25.640625 C29 28 29 28 30.29296875 30.234375 C32.82385272 32.85213142 35.4822006 32.59605671 39 33 C38.9065465 28.6213617 38.80047246 24.24326804 38.68261719 19.86523438 C38.64430002 18.37541111 38.60945192 16.88549446 38.578125 15.39550781 C38.53253271 13.25551952 38.47453126 11.11617564 38.4140625 8.9765625 C38.3826416 7.68830566 38.3512207 6.40004883 38.31884766 5.07275391 C38.31541732 1.89518495 38.31541732 1.89518495 36 0 C40.62 0 45.24 0 50 0 C49.34 0.66 48.68 1.32 48 2 C47.70429145 5.07696796 47.70429145 5.07696796 47.76953125 8.6875 C47.76998947 9.34580811 47.77044769 10.00411621 47.7709198 10.68237305 C47.77394119 12.07439984 47.78182419 13.46642328 47.79418945 14.85839844 C47.81242868 16.99165803 47.81469924 19.12448313 47.81445312 21.2578125 C47.45530934 27.82742306 47.45530934 27.82742306 49 34 C45.12539922 34.14584726 41.25150883 34.23425444 37.375 34.3125 C35.73337891 34.3753418 35.73337891 34.3753418 34.05859375 34.43945312 C24.93814645 34.57764172 24.93814645 34.57764172 21.40234375 31.8046875 C19.15919344 29.18585511 17.60315627 26.94209462 16.1875 23.8125 C15.78917969 22.95269531 15.39085937 22.09289062 14.98046875 21.20703125 C14.65691406 20.47871094 14.33335937 19.75039063 14 19 C13.67 18.34 13.34 17.68 13 17 C14.65 16.34 16.3 15.68 18 15 C18.24954005 13.56589632 18.47392642 12.12739928 18.6875 10.6875 C18.87892578 9.48673828 18.87892578 9.48673828 19.07421875 8.26171875 C19.1995843 5.96484339 19.1995843 5.96484339 17.83203125 4.26953125 C15.66575685 2.58880906 15.66575685 2.58880906 11 2 C11 12.23 11 22.46 11 33 C11.99 33.33 12.98 33.66 14 34 C9.38 34 4.76 34 0 34 C1.485 33.505 1.485 33.505 3 33 C2.9065465 28.6213617 2.80047246 24.24326804 2.68261719 19.86523438 C2.64430002 18.37541111 2.60945192 16.88549446 2.578125 15.39550781 C2.53253271 13.25551952 2.47453126 11.11617564 2.4140625 8.9765625 C2.3826416 7.68830566 2.3512207 6.40004883 2.31884766 5.07275391 C2.31541732 1.89518495 2.31541732 1.89518495 0 0 Z " fill="#2B476E" transform="translate(262,238)"/>
<path d="M0 0 C3.04221065 -0.08132642 6.0822238 -0.14065374 9.125 -0.1875 C9.9809375 -0.21263672 10.836875 -0.23777344 11.71875 -0.26367188 C16.90872628 -0.32355622 20.52546123 0.04794806 25 3 C26.52491998 6.04983996 26.23562548 8.6423369 26 12 C24.5 13.9375 24.5 13.9375 23 15 C23.804375 15.61875 24.60875 16.2375 25.4375 16.875 C28.63975008 19.53052445 28.90774886 20.18511489 29.375 24.3125 C29 28 29 28 26.75 30.875 C23.04999974 33.73409111 20.26341255 34.13045295 15.671875 34.09765625 C14.87265625 34.09443359 14.0734375 34.09121094 13.25 34.08789062 C12.425 34.07951172 11.6 34.07113281 10.75 34.0625 C9.90953125 34.05798828 9.0690625 34.05347656 8.203125 34.04882812 C6.13538599 34.03707961 4.06768376 34.01914522 2 34 C2.33 33.34 2.66 32.68 3 32 C3.23400556 27.71698921 3.22835997 23.43024004 3.24023438 19.14160156 C3.2499632 17.00807041 3.28099756 14.87549344 3.3125 12.7421875 C3.31902791 11.39063073 3.32427921 10.03906706 3.328125 8.6875 C3.34214355 6.83705078 3.34214355 6.83705078 3.35644531 4.94921875 C3.18000488 3.48935547 3.18000488 3.48935547 3 2 C2.01 1.34 1.02 0.68 0 0 Z " fill="#26436C" transform="translate(90,238)"/>
<path d="M0 0 C10.44444444 0 10.44444444 0 15 4 C18.4642332 9.21420667 17.56778928 16.03128832 17 22 C15.47063146 26.3989054 13.19609859 27.9019507 9 30 C6.03 30 3.06 30 0 30 C0 20.1 0 10.2 0 0 Z " fill="#F4F7F9" transform="translate(61,240)"/>
<path d="M0 0 C10.44444444 0 10.44444444 0 15 4 C18.29542782 9.03342743 17.46582243 15.23813483 17 21 C15.32207348 25.86598692 14.22601074 26.83049194 10 30 C6.7 30 3.4 30 0 30 C0 20.1 0 10.2 0 0 Z " fill="#F3F7FA" transform="translate(327,240)"/>
<path d="M0 0 C10.6 0 10.6 0 14 3 C17.78874396 8.22585374 17.65682597 13.80064255 17 20 C16.12712258 23.74186987 14.75998523 26.30707229 11.875 28.9375 C9 30 9 30 0 30 C0 20.1 0 10.2 0 0 Z " fill="#F8FBFC" transform="translate(402,240)"/>
<path d="M0 0 C1.29808594 -0.01417969 2.59617188 -0.02835938 3.93359375 -0.04296875 C7.31722799 0.17192298 9.54355663 0.71583782 12.5625 2.1875 C12.5625 4.8275 12.5625 7.4675 12.5625 10.1875 C9.81723365 8.81486683 9.11894352 6.78157253 7.5625 4.1875 C3.61776839 2.21513419 -1.14815173 2.60374254 -5.4375 3.1875 C-8.74638224 6.1812506 -10.34439832 8.79097473 -10.640625 13.234375 C-10.65609375 14.45640625 -10.6715625 15.6784375 -10.6875 16.9375 C-10.71328125 18.14921875 -10.7390625 19.3609375 -10.765625 20.609375 C-10.40920312 24.49607069 -9.44460522 26.86692151 -7.4375 30.1875 C-4.73677123 32.40595577 -3.4205354 32.1863095 0.125 31.9375 C3.66170369 31.38467567 3.66170369 31.38467567 6.5625 29.1875 C6.92710453 26.52096095 6.92710453 26.52096095 6.75 23.5625 C6.72292969 22.55960937 6.69585937 21.55671875 6.66796875 20.5234375 C6.61576172 19.36714844 6.61576172 19.36714844 6.5625 18.1875 C9.5325 18.1875 12.5025 18.1875 15.5625 18.1875 C15.54956908 21.93746655 15.37757397 25.51966714 14.5625 29.1875 C11.8125 31.75 11.8125 31.75 8.5625 33.1875 C7.82 33.6 7.0775 34.0125 6.3125 34.4375 C-0.44135694 36.27946098 -6.63735537 35.87856725 -12.74609375 32.3984375 C-16.24517527 29.8933214 -18.0925648 27.2223056 -19.4375 23.1875 C-19.98998838 16.51514029 -19.88419937 11.01123341 -16.4375 5.1875 C-11.25342004 0.13634516 -7.05659562 0.03496826 0 0 Z " fill="#183B67" transform="translate(201.4375,237.8125)"/>
<path d="M0 0 C2.6528893 3.24297029 4.332475 6.60427593 6.06640625 10.41015625 C6.34596664 11.0188707 6.62552704 11.62758514 6.91355896 12.25474548 C7.80107188 14.18862728 8.68222406 16.1253146 9.5625 18.0625 C10.44711847 20.00288354 11.33313439 21.94259438 12.22215271 23.88096619 C13.02701207 25.63672014 13.82722533 27.3946017 14.62719727 29.15258789 C15.96873186 32.10293774 15.96873186 32.10293774 18 35 C14.04 35 10.08 35 6 35 C5.67 32.03 5.34 29.06 5 26 C0.71 26 -3.58 26 -8 26 C-8.33 28.97 -8.66 31.94 -9 35 C-11.97 35 -14.94 35 -18 35 C-17.29230469 34.4328125 -16.58460938 33.865625 -15.85546875 33.28125 C-11.53900456 28.96022134 -9.63789649 23.0366583 -7.3125 17.5 C-6.82716797 16.37207031 -6.34183594 15.24414062 -5.84179688 14.08203125 C-3.83745467 9.40984045 -1.87467664 4.72580356 0 0 Z " fill="#22436B" transform="translate(371,237)"/>
<path d="M0 0 C4.29 0 8.58 0 13 0 C12.34 0.66 11.68 1.32 11 2 C10.51587865 5.91731467 10.6295992 9.8686902 10.625 13.8125 C10.60050781 14.90626953 10.57601562 16.00003906 10.55078125 17.12695312 C10.51427057 23.433948 10.51427057 23.433948 12.73828125 29.23046875 C15.27815859 31.21762667 16.37558128 31.62941802 19.5625 31.5 C20.32691406 31.4896875 21.09132812 31.479375 21.87890625 31.46875 C24.46041507 30.89825081 25.35904337 30.03498573 27 28 C28.31361698 25.37276604 28.21253909 23.27389439 28.31640625 20.3359375 C28.35830078 19.21445312 28.40019531 18.09296875 28.44335938 16.9375 C28.48267578 15.761875 28.52199219 14.58625 28.5625 13.375 C28.60568359 12.19164062 28.64886719 11.00828125 28.69335938 9.7890625 C28.79967426 6.85949672 28.90170642 3.92984412 29 1 C28.01 0.67 27.02 0.34 26 0 C29.3 0 32.6 0 36 0 C35.01 0.33 34.02 0.66 33 1 C33.01571045 2.0058313 33.01571045 2.0058313 33.03173828 3.03198242 C33.07343171 6.08378316 33.09936853 9.13552384 33.125 12.1875 C33.14175781 13.24259766 33.15851563 14.29769531 33.17578125 15.38476562 C33.18544922 16.91713867 33.18544922 16.91713867 33.1953125 18.48046875 C33.21102295 19.88655396 33.21102295 19.88655396 33.22705078 21.32104492 C32.92208869 24.91926965 32.0459828 27.84621396 29.59765625 30.546875 C25.09817471 34.07318624 21.97345414 35.36653622 16.1953125 35.28125 C12.38668763 34.79331229 9.03266928 33.34678842 6 31 C3.40572689 27.34272329 2.62069808 24.79350243 2.55859375 20.33203125 C2.53216797 19.27435547 2.50574219 18.21667969 2.47851562 17.12695312 C2.46498047 16.03318359 2.45144531 14.93941406 2.4375 13.8125 C2.40316131 11.63135747 2.36061265 9.45032375 2.30859375 7.26953125 C2.29626709 6.30635986 2.28394043 5.34318848 2.27124023 4.35083008 C2.22485353 1.81058833 2.22485353 1.81058833 0 0 Z " fill="#193C68" transform="translate(222,238)"/>
<path d="M0 0 C7.92 0 15.84 0 24 0 C24 1.65 24 3.3 24 5 C23.01 4.34 22.02 3.68 21 3 C17.67401793 2.44479669 14.36692991 2.26235817 11 2 C11 6.62 11 11.24 11 16 C13.97 16 16.94 16 20 16 C20.66 14.68 21.32 13.36 22 12 C22 15.63 22 19.26 22 23 C21.01 21.68 20.02 20.36 19 19 C16.9683434 18.31149171 16.9683434 18.31149171 14.8125 18.25 C13.554375 18.1675 12.29625 18.085 11 18 C11 22.62 11 27.24 11 32 C17.53830645 31.84054923 17.53830645 31.84054923 22.9375 28.5625 C23.9584375 27.2940625 23.9584375 27.2940625 25 26 C25.66 25.34 26.32 24.68 27 24 C26.125 31.75 26.125 31.75 25 34 C16.75 34 8.5 34 0 34 C1.485 33.505 1.485 33.505 3 33 C2.9065465 28.6213617 2.80047246 24.24326804 2.68261719 19.86523438 C2.64430002 18.37541111 2.60945192 16.88549446 2.578125 15.39550781 C2.53253271 13.25551952 2.47453126 11.11617564 2.4140625 8.9765625 C2.3826416 7.68830566 2.3512207 6.40004883 2.31884766 5.07275391 C2.31541732 1.89518495 2.31541732 1.89518495 0 0 Z " fill="#27456F" transform="translate(151,238)"/>
<path d="M0 0 C0 1.98 0 3.96 0 6 C-0.66 5.67 -1.32 5.34 -2 5 C-2 4.34 -2 3.68 -2 3 C-5.3 3 -8.6 3 -12 3 C-12.33 4.65 -12.66 6.3 -13 8 C-8.88978525 11.42517896 -4.53413861 14.4162197 -0.109375 17.4140625 C2 19 2 19 3 21 C3.29509656 24.31983634 3.16794534 26.57519709 1.9375 29.6875 C-0.71009149 32.84752856 -3.08909171 33.76154571 -7 35 C-11.57684394 35.39455551 -14.88102719 35.0594864 -19 33 C-20 32 -20 32 -20.0625 28.4375 C-20.041875 27.303125 -20.02125 26.16875 -20 25 C-19.4225 25.78375 -18.845 26.5675 -18.25 27.375 C-15.61358712 30.49925479 -15.61358712 30.49925479 -12 32 C-7.65833586 31.91083888 -7.65833586 31.91083888 -4 30 C-3.48298469 27.62795272 -3.48298469 27.62795272 -4 25 C-6.23956467 22.81496434 -6.23956467 22.81496434 -9.1875 21 C-19.61129224 13.82692647 -19.61129224 13.82692647 -20.625 9.0625 C-19.75099364 4.77986881 -18.08750921 3.08750921 -15 0 C-9.97560615 -1.67479795 -5.09914442 -1.23615622 0 0 Z " fill="#1D3E6A" transform="translate(144,238)"/>
<path d="M0 0 C5.28 0 10.56 0 16 0 C16 0.33 16 0.66 16 1 C13.03 1 10.06 1 7 1 C7 10.9 7 20.8 7 31 C9.97 31 12.94 31 16 31 C16 31.66 16 32.32 16 33 C9.73 33 3.46 33 -3 33 C-2.34 32.34 -1.68 31.68 -1 31 C-0.62653332 27.79461597 -0.62653332 27.79461597 -0.5859375 24.0234375 C-0.56657135 23.33819 -0.5472052 22.6529425 -0.5272522 21.94692993 C-0.46743169 19.75641356 -0.42106244 17.5658447 -0.375 15.375 C-0.33682237 13.89060198 -0.29777076 12.40622616 -0.2578125 10.921875 C-0.16008069 7.281365 -0.08053642 3.64109385 0 0 Z " fill="#1A3B66" transform="translate(320,239)"/>
<path d="M0 0 C3.63 0 7.26 0 11 0 C9.68 0.33 8.36 0.66 7 1 C7 10.9 7 20.8 7 31 C8.65 31 10.3 31 12 31 C11.67 31.66 11.34 32.32 11 33 C6.71 33 2.42 33 -2 33 C-1.67 32.34 -1.34 31.68 -1 31 C-0.84479443 28.67726841 -0.74980833 26.35040687 -0.68359375 24.0234375 C-0.6524221 22.99556625 -0.6524221 22.99556625 -0.62062073 21.94692993 C-0.55519815 19.75638931 -0.49627446 17.56572811 -0.4375 15.375 C-0.39430782 13.8906125 -0.3506933 12.40623722 -0.30664062 10.921875 C-0.19952447 7.28137916 -0.09823638 3.64074749 0 0 Z " fill="#183B67" transform="translate(94,239)"/>
<path d="M0 0 C2.64 0 5.28 0 8 0 C8 10.23 8 20.46 8 31 C9.32 31 10.64 31 12 31 C12 31.66 12 32.32 12 33 C7.71 33 3.42 33 -1 33 C-0.67 32.34 -0.34 31.68 0 31 C0.08586809 28.67583704 0.10711043 26.34916693 0.09765625 24.0234375 C0.0962413 23.33819 0.09482635 22.6529425 0.09336853 21.94692993 C0.08776675 19.75624239 0.07521406 17.5656567 0.0625 15.375 C0.05748522 13.89062648 0.05292228 12.40625135 0.04882812 10.921875 C0.03779677 7.28121685 0.02053099 3.64061836 0 0 Z " fill="#1C3A63" transform="translate(394,239)"/>
<path d="M0 0 C2.97 0.495 2.97 0.495 6 1 C8.32579101 4.48868651 8.41865457 5.89718519 8 10 C6.5 12.375 6.5 12.375 5 14 C5.825 14.70125 6.65 15.4025 7.5 16.125 C10 19 10 19 10.625 22 C9.78253791 26.04381805 8.26600019 27.53235541 5 30 C3.35 30 1.7 30 0 30 C0 20.1 0 10.2 0 0 Z " fill="#FBFCFC" transform="translate(101,240)"/>
<path d="M0 0 C5.61 0 11.22 0 17 0 C17 0.33 17 0.66 17 1 C13.7 1 10.4 1 7 1 C7.00523682 1.83772949 7.01047363 2.67545898 7.01586914 3.53857422 C7.03290014 6.64338936 7.04544482 9.74818071 7.05493164 12.85302734 C7.06244036 14.85906551 7.0751447 16.86508202 7.08789062 18.87109375 C7.09111328 20.12792969 7.09433594 21.38476562 7.09765625 22.6796875 C7.10289307 23.84226074 7.10812988 25.00483398 7.11352539 26.20263672 C7 29 7 29 6 31 C4.35 31 2.7 31 1 31 C-0.43509221 28.12981559 -0.11158506 25.66456277 -0.09765625 22.4609375 C-0.09443359 21.15898437 -0.09121094 19.85703125 -0.08789062 18.515625 C-0.07953466 17.13541601 -0.07106971 15.75520768 -0.0625 14.375 C-0.05748501 12.98698074 -0.0529221 11.59895978 -0.04882812 10.2109375 C-0.03700985 6.80727327 -0.0190739 3.4036313 0 0 Z " fill="#193A67" transform="translate(54,239)"/>
<path d="M0 0 C0.54851326 2.14418821 1.04624827 4.25766893 1.4375 6.4375 C2.04032523 9.18370382 2.71343908 11.49459189 4 14 C6.01735205 15.34410262 6.01735205 15.34410262 8 16 C8 17.32 8 18.64 8 20 C8.66 20 9.32 20 10 20 C10 21.65 10 23.3 10 25 C9.34 25.33 8.68 25.66 8 26 C7.505 23.525 7.505 23.525 7 21 C2.71 21 -1.58 21 -6 21 C-6.33 23.97 -6.66 26.94 -7 30 C-9.97 30 -12.94 30 -16 30 C-15.29488281 29.43925781 -14.58976562 28.87851562 -13.86328125 28.30078125 C-9.47219919 23.90969919 -7.5489189 17.81518056 -5.1875 12.1875 C-4.68541016 11.01767578 -4.18332031 9.84785156 -3.66601562 8.64257812 C-2.43324255 5.76610763 -1.21170615 2.88539315 0 0 Z " fill="#324968" transform="translate(369,242)"/>
<path d="M0 0 C5.26636624 0.58698902 9.46208495 2.3100256 14.1875 4.5625 C15.30209595 5.0884375 15.30209595 5.0884375 16.43920898 5.625 C22.85698649 8.74742481 28.45101842 12.49369962 34 17 C33.01 17.495 33.01 17.495 32 18 C30.09845661 17.34315773 28.227795 16.59637481 26.375 15.8125 C14.97801153 11.27889133 3.13103914 8.74613442 -9 7 C-6.97067421 5.4386529 -5.1212167 4.05887668 -2.8125 2.9375 C-0.82107843 2.13297839 -0.82107843 2.13297839 0 0 Z " fill="#1D3D69" transform="translate(277,136)"/>
<path d="M0 0 C0.99 0 1.98 0 3 0 C3.6217996 5.9692762 3.16012576 10.50093639 -0.2890625 15.53515625 C-2.52285401 17.44764898 -3.90290753 17.49541074 -6.8125 17.5 C-8.194375 17.335 -9.57625 17.17 -11 17 C-11 12.38 -11 7.76 -11 3 C-9.39125 2.95875 -7.7825 2.9175 -6.125 2.875 C-5.22007812 2.85179687 -4.31515625 2.82859375 -3.3828125 2.8046875 C-1 3 -1 3 1 5 C1.33 3.68 1.66 2.36 2 1 C1.34 0.67 0.68 0.34 0 0 Z " fill="#F8FCFB" transform="translate(173,237)"/>
<path d="M0 0 C3.3 0 6.6 0 10 0 C9.01 0.33 8.02 0.66 7 1 C7.01047363 1.6705542 7.02094727 2.3411084 7.03173828 3.03198242 C7.07343171 6.08378316 7.09936853 9.13552384 7.125 12.1875 C7.14175781 13.24259766 7.15851563 14.29769531 7.17578125 15.38476562 C7.18222656 16.40634766 7.18867188 17.42792969 7.1953125 18.48046875 C7.20578613 19.41785889 7.21625977 20.35524902 7.22705078 21.32104492 C6.92208869 24.91926965 6.0459828 27.84621396 3.59765625 30.546875 C-0.40887835 33.68685632 -3.11560569 35.14564581 -8.1875 35.0625 C-9.445625 35.041875 -10.70375 35.02125 -12 35 C-12.495 33.515 -12.495 33.515 -13 32 C-12.24074219 31.96261719 -11.48148438 31.92523438 -10.69921875 31.88671875 C-9.70535156 31.82097656 -8.71148437 31.75523437 -7.6875 31.6875 C-6.70136719 31.62949219 -5.71523437 31.57148438 -4.69921875 31.51171875 C-1.71868706 30.9466686 -0.8096637 30.37188932 1 28 C2.31361698 25.37276604 2.21253909 23.27389439 2.31640625 20.3359375 C2.35830078 19.21445312 2.40019531 18.09296875 2.44335938 16.9375 C2.48267578 15.761875 2.52199219 14.58625 2.5625 13.375 C2.60568359 12.19164062 2.64886719 11.00828125 2.69335938 9.7890625 C2.79967426 6.85949672 2.90170642 3.92984412 3 1 C2.01 0.67 1.02 0.34 0 0 Z " fill="#495D7C" transform="translate(248,238)"/>
<path d="M0 0 C1.2890625 -0.00515625 2.578125 -0.0103125 3.90625 -0.015625 C7.2523621 0.23169633 9.50689053 0.7994931 12.5 2.25 C12.5 4.89 12.5 7.53 12.5 10.25 C9.75473365 8.87736683 9.05644352 6.84407253 7.5 4.25 C3.55526839 2.27763419 -1.21065173 2.66624254 -5.5 3.25 C-9.6987274 7.0488486 -10.61671388 10.39819907 -11.0625 15.875 C-11.18818359 17.37933594 -11.18818359 17.37933594 -11.31640625 18.9140625 C-11.37699219 19.68492187 -11.43757812 20.45578125 -11.5 21.25 C-11.83 21.25 -12.16 21.25 -12.5 21.25 C-12.5 17.29 -12.5 13.33 -12.5 9.25 C-14.48 10.24 -16.46 11.23 -18.5 12.25 C-18.1999825 8.74979578 -17.54266259 7.30095809 -15.25 4.5625 C-10.34287 0.43604977 -6.34430099 -0.0253772 0 0 Z " fill="#2C486D" transform="translate(201.5,237.75)"/>
<path d="M0 0 C0 1.98 0 3.96 0 6 C-0.66 5.67 -1.32 5.34 -2 5 C-2 4.34 -2 3.68 -2 3 C-5.3 3 -8.6 3 -12 3 C-12.33 4.65 -12.66 6.3 -13 8 C-12.21625 8.61875 -11.4325 9.2375 -10.625 9.875 C-8 12 -8 12 -6 14 C-9.71599191 14.20086443 -10.77208445 14.1519437 -14 12 C-14.33 13.32 -14.66 14.64 -15 16 C-18 15 -18 15 -20 12 C-20.46523838 9.00918184 -20.57669119 6.9581946 -18.984375 4.3125 C-13.80969473 -2.17143672 -7.63931095 -1.85195417 0 0 Z " fill="#28466D" transform="translate(144,238)"/>
<path d="M0 0 C1.65 0 3.3 0 5 0 C5.95376567 3.20782086 6.11621181 6.08187396 6.09765625 9.421875 C6.09443359 10.44667969 6.09121094 11.47148437 6.08789062 12.52734375 C6.07951172 13.59082031 6.07113281 14.65429688 6.0625 15.75 C6.05798828 16.82894531 6.05347656 17.90789062 6.04882812 19.01953125 C6.03705727 21.67974383 6.02061399 24.33984365 6 27 C4.35 27.33 2.7 27.66 1 28 C0.67 18.76 0.34 9.52 0 0 Z " fill="#153B6C" transform="translate(301,239)"/>
<path d="M0 0 C2.31 0.33 4.62 0.66 7 1 C9.50884816 4.76327224 9.18853669 6.57015542 8.625 10.90234375 C8 13 8 13 5.4375 15.0625 C4.633125 15.371875 3.82875 15.68125 3 16 C3.66 17.32 4.32 18.64 5 20 C3.35 19.67 1.7 19.34 0 19 C0 12.73 0 6.46 0 0 Z " fill="#EFF5F8" transform="translate(273,240)"/>
<path d="M0 0 C0.33 0 0.66 0 1 0 C1 10.23 1 20.46 1 31 C1.99 31.33 2.98 31.66 4 32 C-0.62 32 -5.24 32 -10 32 C-9.01 31.67 -8.02 31.34 -7 31 C-7 21.43 -7 11.86 -7 2 C-6.67 2 -6.34 2 -6 2 C-5.67 7.94 -5.34 13.88 -5 20 C-4.01 20 -3.02 20 -2 20 C-1.67 21.32 -1.34 22.64 -1 24 C-0.67 16.08 -0.34 8.16 0 0 Z " fill="#465F81" transform="translate(272,240)"/>
<path d="M0 0 C0.53367188 0.18175781 1.06734375 0.36351562 1.6171875 0.55078125 C4.07414115 1.3796843 6.53606335 2.19209199 9 3 C9.82757813 3.27457031 10.65515625 3.54914063 11.5078125 3.83203125 C17.03687134 5.59127724 22.2145731 6.53343331 28 7 C28.33 8.32 28.66 9.64 29 11 C27.5625 12.6875 27.5625 12.6875 25 14 C15.84368626 12.62655294 7.18884233 6.50634732 0 1 C0 0.67 0 0.34 0 0 Z " fill="#585656" transform="translate(205,327)"/>
<path d="M0 0 C0.33 4.95 0.66 9.9 1 15 C0.67 15 0.34 15 0 15 C-0.33 16.65 -0.66 18.3 -1 20 C-1.99 20 -2.98 20 -4 20 C-7.46850186 14.6527263 -8.09406179 9.20631413 -7 3 C-4.54305747 0.73702662 -3.3203746 0 0 0 Z " fill="#203D68" transform="translate(189,247)"/>
<path d="M0 0 C3.31686552 0.01786463 3.9727453 0.14069624 6.6875 2.3125 C7.1825 2.9725 7.6775 3.6325 8.1875 4.3125 C7.8575 5.3025 7.5275 6.2925 7.1875 7.3125 C6.5275 7.3125 5.8675 7.3125 5.1875 7.3125 C4.8575 9.2925 4.5275 11.2725 4.1875 13.3125 C2.89376218 12.52422254 1.60258049 11.73174884 0.3125 10.9375 C-0.76644531 10.27621094 -0.76644531 10.27621094 -1.8671875 9.6015625 C-3.8125 8.3125 -3.8125 8.3125 -5.8125 6.3125 C-5.09359855 0.41750808 -5.09359855 0.41750808 0 0 Z " fill="#F1F8F9" transform="translate(135.8125,239.6875)"/>
<path d="M0 0 C7 2 7 2 9 5 C9.35113132 8.30063438 9.30243074 10.36153511 7.875 13.375 C6 15 6 15 0 15 C0 10.05 0 5.1 0 0 Z " fill="#F3F9FB" transform="translate(102,254)"/>
<path d="M0 0 C1.5 1.125 1.5 1.125 3 3 C3.44062213 6.37810296 3.19031672 8.51861066 1.9375 11.6875 C-0.71009149 14.84752856 -3.08909171 15.76154571 -7 17 C-11.57684394 17.39455551 -14.88102719 17.0594864 -19 15 C-20 14 -20 14 -20.0625 10.4375 C-20.041875 9.303125 -20.02125 8.16875 -20 7 C-19.13375 8.175625 -19.13375 8.175625 -18.25 9.375 C-15.61358712 12.49925479 -15.61358712 12.49925479 -12 14 C-8.31796085 13.68873287 -8.31796085 13.68873287 -5 13 C-4.34 10.69 -3.68 8.38 -3 6 C-1.68 6 -0.36 6 1 6 C0.67 4.02 0.34 2.04 0 0 Z " fill="#334D75" transform="translate(144,256)"/>
<path d="M0 0 C0.33 0 0.66 0 1 0 C1 2.31 1 4.62 1 7 C1.66 7 2.32 7 3 7 C3.36457653 10.43647963 3.71486408 13.87426865 4.0625 17.3125 C4.2181543 18.77719727 4.2181543 18.77719727 4.37695312 20.27148438 C4.47041016 21.20927734 4.56386719 22.14707031 4.66015625 23.11328125 C4.74918213 23.97735596 4.83820801 24.84143066 4.92993164 25.73168945 C5 28 5 28 4 31 C2.68 30.67 1.36 30.34 0 30 C0 20.1 0 10.2 0 0 Z " fill="#38587F" transform="translate(154,240)"/>
<path d="M0 0 C3.20815845 -0.08774066 6.41600462 -0.14063706 9.625 -0.1875 C10.52863281 -0.21263672 11.43226563 -0.23777344 12.36328125 -0.26367188 C17.66482254 -0.32171795 21.45985656 -0.07211599 26 3 C28.33909307 6.5086396 28.41291057 7.87089433 28 12 C26.5 14.875 26.5 14.875 25 17 C23.768606 13.30581799 24.35567236 10.7943739 25 7 C22.96758273 7.63979849 22.96758273 7.63979849 21 9 C20.18828772 11.55519921 20.18828772 11.55519921 20 14 C18.67770811 11.35541621 18.90322806 9.32238699 18.9375 6.375 C18.94652344 5.37210938 18.95554687 4.36921875 18.96484375 3.3359375 C18.97644531 2.56507813 18.98804688 1.79421875 19 1 C17.79601562 1.09539062 16.59203125 1.19078125 15.3515625 1.2890625 C13.77608123 1.40159688 12.20055805 1.51354573 10.625 1.625 C9.8309375 1.68945312 9.036875 1.75390625 8.21875 1.8203125 C6.14971776 1.96058587 4.07374464 1.98758237 2 2 C1.34 1.34 0.68 0.68 0 0 Z " fill="#334E73" transform="translate(262,238)"/>
<path d="M0 0 C1.8671875 0.15625 1.8671875 0.15625 4 1 C5.1953125 3.46875 5.1953125 3.46875 6.125 6.5 C6.70165519 8.34910922 7.31738112 10.18733137 8 12 C8.66 12.33 9.32 12.66 10 13 C9.67 14.98 9.34 16.96 9 19 C11.31 19.33 13.62 19.66 16 20 C16 20.33 16 20.66 16 21 C12.04 21 8.08 21 4 21 C4.66 17.7 5.32 14.4 6 11 C5.34 11 4.68 11 4 11 C4 9.68 4 8.36 4 7 C1.525 6.01 1.525 6.01 -1 5 C-0.67 3.35 -0.34 1.7 0 0 Z " fill="#153C6E" transform="translate(373,251)"/>
<path d="M0 0 C3.49971199 -0.1173794 6.99890955 -0.18763961 10.5 -0.25 C11.48226563 -0.28351563 12.46453125 -0.31703125 13.4765625 -0.3515625 C19.86599114 -0.43675488 24.70102481 0.25849387 30 4 C34 8.2 34 8.2 34 11 C33.34 11 32.68 11 32 11 C31.67 10.34 31.34 9.68 31 9 C29.35 9.33 27.7 9.66 26 10 C25.5875 9.21625 25.175 8.4325 24.75 7.625 C22.9607223 4.94108344 21.95011861 4.11901051 19 3 C19 2.34 19 1.68 19 1 C17.79601562 1.09539062 16.59203125 1.19078125 15.3515625 1.2890625 C13.77608123 1.40159688 12.20055805 1.51354573 10.625 1.625 C9.8309375 1.68945312 9.036875 1.75390625 8.21875 1.8203125 C6.14971776 1.96058587 4.07374464 1.98758237 2 2 C1.34 1.34 0.68 0.68 0 0 Z " fill="#244066" transform="translate(317,238)"/>
<path d="M0 0 C0.66 0 1.32 0 2 0 C3.29235715 4.91502758 3.11135517 9.77290102 3.0625 14.8125 C3.05798828 15.69615234 3.05347656 16.57980469 3.04882812 17.49023438 C3.03709866 19.66018559 3.01916495 21.83010172 3 24 C1.01953125 22.60546875 1.01953125 22.60546875 -1 20 C-1.53500514 16.76204929 -1.42181424 13.58463959 -1.3125 10.3125 C-1.30283203 9.43271484 -1.29316406 8.55292969 -1.28320312 7.64648438 C-1.16832442 1.16832442 -1.16832442 1.16832442 0 0 Z " fill="#143C6E" transform="translate(268,240)"/>
<path d="M0 0 C13.2 0 26.4 0 40 0 C41.32 2.97 42.64 5.94 44 9 C43.01 9 42.02 9 41 9 C38 4.77777778 38 4.77777778 38 2 C26.45 1.67 14.9 1.34 3 1 C3 3.31 3 5.62 3 8 C1 5 1 5 0 0 Z " fill="#1E3960" transform="translate(126,292)"/>
<path d="M0 0 C0.99 0 1.98 0 3 0 C2.67 8.58 2.34 17.16 2 26 C1.01 26 0.02 26 -1 26 C-1.02892857 22.04168191 -1.04677427 18.08339083 -1.0625 14.125 C-1.07087891 12.99707031 -1.07925781 11.86914062 -1.08789062 10.70703125 C-1.09111328 9.63066406 -1.09433594 8.55429688 -1.09765625 7.4453125 C-1.10289307 6.45031738 -1.10812988 5.45532227 -1.11352539 4.43017578 C-1 2 -1 2 0 0 Z " fill="#133C6E" transform="translate(399,239)"/>
<path d="M0 0 C0.99 0.33 1.98 0.66 3 1 C3.474375 1.969375 3.94875 2.93875 4.4375 3.9375 C5.70728323 6.98095012 5.70728323 6.98095012 7.75 8.3125 C10.7991675 9.24419007 13.83818859 9.63517561 17 10 C17 10.66 17 11.32 17 12 C10.13046258 12.50676915 4.73671025 12.10406947 -1 8 C-1.33 7.34 -1.66 6.68 -2 6 C-1.34 6 -0.68 6 0 6 C0 4.02 0 2.04 0 0 Z " fill="#385073" transform="translate(188,261)"/>
<path d="M0 0 C0.66 0.33 1.32 0.66 2 1 C1.835 2.11375 1.67 3.2275 1.5 4.375 C0.9544542 7.72032033 0.9544542 7.72032033 1 10 C0.61312658 12.39861522 0.12100089 13.83290354 -1.3125 15.8125 C-3 17 -3 17 -5.1875 16.6875 C-5.785625 16.460625 -6.38375 16.23375 -7 16 C-6.125 10.25 -6.125 10.25 -5 8 C-4.01 7.67 -3.02 7.34 -2 7 C-0.77030122 3.48809191 -0.77030122 3.48809191 0 0 Z " fill="#203E68" transform="translate(83,252)"/>
<path d="M0 0 C1.48231082 4.44693247 -0.42024367 7.49945421 -2.0625 11.75 C-3.38745986 16.34319419 -4 21.20549056 -4 26 C-5.65 26 -7.3 26 -9 26 C-8.44068535 20.66234292 -7.13839724 16.24586731 -5.0625 11.3125 C-4.79759766 10.66216797 -4.53269531 10.01183594 -4.25976562 9.34179688 C-2.95473567 6.16503662 -1.59448935 3.04262461 0 0 Z " fill="#244165" transform="translate(131,194)"/>
<path d="M0 0 C1.32 0.66 2.64 1.32 4 2 C2.48527436 5.96840401 0.12782167 7.61644831 -3.3125 10 C-6.97777607 12.56019283 -10.53525127 15.17266406 -14 18 C-14 16.68 -14 15.36 -14 14 C-13.01 14 -12.02 14 -11 14 C-11 13.34 -11 12.68 -11 12 C-10.01 11.34 -9.02 10.68 -8 10 C-8.33 9.01 -8.66 8.02 -9 7 C-7.68 6.01 -6.36 5.02 -5 4 C-4.01 5.485 -4.01 5.485 -3 7 C-3 6.34 -3 5.68 -3 5 C-2.34 5 -1.68 5 -1 5 C-0.67 3.35 -0.34 1.7 0 0 Z " fill="#20426E" transform="translate(201,157)"/>
<path d="M0 0 C0.66 0.33 1.32 0.66 2 1 C-0.73275077 2.90116027 -3.4884359 4.76599588 -6.25 6.625 C-7.02730469 7.16640625 -7.80460937 7.7078125 -8.60546875 8.265625 C-9.35957031 8.76835937 -10.11367188 9.27109375 -10.890625 9.7890625 C-11.92751465 10.49603271 -11.92751465 10.49603271 -12.98535156 11.21728516 C-15 12 -15 12 -17.25683594 11.13818359 C-17.83208008 10.76258301 -18.40732422 10.38698242 -19 10 C-19 9.01 -19 8.02 -19 7 C-17.96359375 6.66226562 -16.9271875 6.32453125 -15.859375 5.9765625 C-14.4895304 5.52620263 -13.11974166 5.07567286 -11.75 4.625 C-11.06808594 4.40328125 -10.38617188 4.1815625 -9.68359375 3.953125 C-6.9046272 3.03579624 -4.24106635 2.12532257 -1.640625 0.7734375 C-1.09921875 0.51820313 -0.5578125 0.26296875 0 0 Z " fill="#2D4A6F" transform="translate(311,345)"/>
<path d="M0 0 C0 0.66 0 1.32 0 2 C0.99 2.33 1.98 2.66 3 3 C0.59231297 5.79163712 -1.76146616 6.89717557 -5.1875 8.1875 C-6.08855469 8.53167969 -6.98960937 8.87585938 -7.91796875 9.23046875 C-8.60503906 9.48441406 -9.29210937 9.73835938 -10 10 C-10.33 9.34 -10.66 8.68 -11 8 C-8.94766315 5.7522025 -7.99332739 4.9977758 -5 4 C-5.99 3.34 -6.98 2.68 -8 2 C-2.25 0 -2.25 0 0 0 Z " fill="#233F6B" transform="translate(292,353)"/>
<path d="M0 0 C3.25191199 3.81612385 5.11627147 8.23299891 7.1875 12.75 C7.73954102 13.93916016 7.73954102 13.93916016 8.30273438 15.15234375 C9.20599492 17.09963272 10.1035641 19.04955989 11 21 C9.02 21 7.04 21 5 21 C5 18.37886292 5.31292445 16.49064888 6 14 C5.01 13.67 4.02 13.34 3 13 C2.05078125 11.07421875 2.05078125 11.07421875 1.3125 8.6875 C0.93544922 7.51767578 0.93544922 7.51767578 0.55078125 6.32421875 C0 4 0 4 0 0 Z " fill="#2D4A6F" transform="translate(377,250)"/>
<path d="M0 0 C0.33 0 0.66 0 1 0 C2.45295405 9.99562363 2.45295405 9.99562363 0.5625 14.1875 C0.046875 14.785625 -0.46875 15.38375 -1 16 C-0.34 16 0.32 16 1 16 C1 16.99 1 17.98 1 19 C-1.97 19.66 -4.94 20.32 -8 21 C-6 17 -6 17 -3.953125 15.171875 C-1.35775419 12.28582266 -1.20796872 10.066406 -0.75 6.25 C-0.60046875 5.07953125 -0.4509375 3.9090625 -0.296875 2.703125 C-0.19890625 1.81109375 -0.1009375 0.9190625 0 0 Z " fill="#375273" transform="translate(344,251)"/>
<path d="M0 0 C2.96052484 3.36423277 3.92289822 6.69159287 5 11 C2.03 11 -0.94 11 -4 11 C-3.52269162 9.5410574 -3.04308958 8.08286504 -2.5625 6.625 C-2.29566406 5.81289062 -2.02882813 5.00078125 -1.75390625 4.1640625 C-1 2 -1 2 0 0 Z " fill="#E9F1F7" transform="translate(369,249)"/>
<path d="M0 0 C4.62 0 9.24 0 14 0 C13.34 0.66 12.68 1.32 12 2 C11.62703444 5.00972657 11.62703444 5.00972657 11.5859375 8.5390625 C11.54726563 9.84101563 11.50859375 11.14296875 11.46875 12.484375 C11.43729237 13.86457862 11.40604509 15.24478704 11.375 16.625 C11.33682066 18.01304541 11.29776895 19.40106711 11.2578125 20.7890625 C11.16327057 24.19257185 11.07772103 27.59607165 11 31 C10.67 31 10.34 31 10 31 C10 22.42 10 13.84 10 5 C9.34 5 8.68 5 8 5 C8 3.68 8 2.36 8 1 C6.576875 1.309375 6.576875 1.309375 5.125 1.625 C4.09375 1.74875 3.0625 1.8725 2 2 C1.34 1.34 0.68 0.68 0 0 Z " fill="#53657F" transform="translate(298,238)"/>
<path d="M0 0 C0.66 0.33 1.32 0.66 2 1 C1.27683594 1.68835938 1.27683594 1.68835938 0.5390625 2.390625 C-0.09257812 3.00421875 -0.72421875 3.6178125 -1.375 4.25 C-2.00148437 4.85328125 -2.62796875 5.4565625 -3.2734375 6.078125 C-4.97310161 7.9700588 -5.98459866 9.68201309 -7 12 C-7.66 12 -8.32 12 -9 12 C-9.20625 12.928125 -9.4125 13.85625 -9.625 14.8125 C-11 18 -11 18 -14.125 19.875 C-15.548125 20.431875 -15.548125 20.431875 -17 21 C-15.50210246 16.03181808 -12.56970689 13.02816675 -9.0625 9.375 C-8.25522461 8.51648438 -8.25522461 8.51648438 -7.43164062 7.640625 C-4.99245598 5.05406668 -2.52074073 2.50724092 0 0 Z " fill="#DFEAF3" transform="translate(193,169)"/>
<path d="M0 0 C3.3 0 6.6 0 10 0 C9.01 0.66 8.02 1.32 7 2 C6.49297483 4.12106795 6.49297483 4.12106795 6.48828125 6.5703125 C6.45283203 7.46621094 6.41738281 8.36210937 6.38085938 9.28515625 C6.35830078 10.22230469 6.33574219 11.15945312 6.3125 12.125 C6.27833984 13.06988281 6.24417969 14.01476562 6.20898438 14.98828125 C6.12635888 17.32540253 6.05726012 19.66214191 6 22 C3.64048066 19.64048066 3.74540373 19.13923305 3.69140625 15.9375 C3.66626953 15.14085937 3.64113281 14.34421875 3.61523438 13.5234375 C3.58007974 11.8412229 3.54882923 10.15892217 3.52148438 8.4765625 C3.49505859 7.67992187 3.46863281 6.88328125 3.44140625 6.0625 C3.42795166 5.33160156 3.41449707 4.60070312 3.40063477 3.84765625 C3.13483627 1.58750762 3.13483627 1.58750762 0 0 Z " fill="#294269" transform="translate(248,238)"/>
<path d="M0 0 C1.32 0.33 2.64 0.66 4 1 C4 2.32 4 3.64 4 5 C4.66 5 5.32 5 6 5 C6 6.65 6 8.3 6 10 C5.01 10.495 5.01 10.495 4 11 C3.67 9.35 3.34 7.7 3 6 C-0.96 6 -4.92 6 -9 6 C-8.67 5.01 -8.34 4.02 -8 3 C-5.36 2.67 -2.72 2.34 0 2 C0 1.34 0 0.68 0 0 Z " fill="#4B6485" transform="translate(373,257)"/>
<path d="M0 0 C0.66 0.33 1.32 0.66 2 1 C1.53199289 5.05606165 1.12046792 8.46588679 -1 12 C-2.32 11.67 -3.64 11.34 -5 11 C-4.33333333 8.33333333 -3.66666667 5.66666667 -3 3 C-2.34 3 -1.68 3 -1 3 C-0.67 2.01 -0.34 1.02 0 0 Z " fill="#173C6B" transform="translate(286,244)"/>
<path d="M0 0 C1.32 0.33 2.64 0.66 4 1 C3.01 1 2.02 1 1 1 C1 3.97 1 6.94 1 10 C1.66 10.33 2.32 10.66 3 11 C4.125 13.0625 4.125 13.0625 5 15 C4.01 15 3.02 15 2 15 C1.67 19.62 1.34 24.24 1 29 C2.32 29.33 3.64 29.66 5 30 C3.35 30 1.7 30 0 30 C0 20.1 0 10.2 0 0 Z " fill="#BDCDDE" transform="translate(101,240)"/>
<path d="M0 0 C3.5624308 -0.05827558 7.12473819 -0.09368885 10.6875 -0.125 C12.19860352 -0.15013672 12.19860352 -0.15013672 13.74023438 -0.17578125 C14.71669922 -0.18222656 15.69316406 -0.18867188 16.69921875 -0.1953125 C17.59471436 -0.20578613 18.49020996 -0.21625977 19.4128418 -0.22705078 C22.26168257 0.02296544 24.40894543 0.81983488 27 2 C26.01 2.495 26.01 2.495 25 3 C24.67 3.66 24.34 4.32 24 5 C23.43829102 4.68305176 22.87658203 4.36610352 22.29785156 4.03955078 C19.83192126 2.92396098 17.92114243 2.60830765 15.234375 2.3671875 C14.34492188 2.28339844 13.45546875 2.19960937 12.5390625 2.11328125 C11.61867188 2.03464844 10.69828125 1.95601562 9.75 1.875 C8.34621094 1.74544922 8.34621094 1.74544922 6.9140625 1.61328125 C4.60992647 1.40167692 2.30537956 1.19751323 0 1 C0 0.67 0 0.34 0 0 Z " fill="#344E6D" transform="translate(391,238)"/>
<path d="M0 0 C1.36125 0.37125 1.36125 0.37125 2.75 0.75 C3.08 1.74 3.41 2.73 3.75 3.75 C-3.53571429 7.17857143 -3.53571429 7.17857143 -8.25 6.75 C-6.71281892 2.13845676 -5.10744384 -0.3928803 0 0 Z " fill="#2B466B" transform="translate(113.25,265.25)"/>
<path d="M0 0 C3.96 0.33 7.92 0.66 12 1 C12 1.33 12 1.66 12 2 C10.02 2 8.04 2 6 2 C6 2.99 6 3.98 6 5 C2.7 5 -0.6 5 -4 5 C-4 4.34 -4 3.68 -4 3 C-4.66 2.67 -5.32 2.34 -6 2 C-4.02 1.67 -2.04 1.34 0 1 C0 0.67 0 0.34 0 0 Z " fill="#224472" transform="translate(246,129)"/>
<path d="M0 0 C-6.79817515 4.53211677 -17.06811923 3.13807916 -25 3 C-25 2.67 -25 2.34 -25 2 C-16.59628191 -0.21462689 -8.6274658 -0.20705918 0 0 Z " fill="#3C5376" transform="translate(239,129)"/>
<path d="M0 0 C7.92 0 15.84 0 24 0 C24 1.65 24 3.3 24 5 C23.01 4.34 22.02 3.68 21 3 C18.90837973 2.66759455 18.90837973 2.66759455 16.62109375 2.65625 C15.78255859 2.62660156 14.94402344 2.59695312 14.08007812 2.56640625 C12.31445559 2.52203732 10.54883057 2.47776692 8.78320312 2.43359375 C7.94595703 2.40394531 7.10871094 2.37429687 6.24609375 2.34375 C5.47966553 2.32505859 4.7132373 2.30636719 3.92358398 2.28710938 C2 2 2 2 0 0 Z " fill="#324C6B" transform="translate(151,238)"/>
<path d="M0 0 C0 0.33 0 0.66 0 1 C-0.69561035 1.0501123 -1.3912207 1.10022461 -2.10791016 1.15185547 C-5.28091502 1.38495478 -8.45290307 1.62986679 -11.625 1.875 C-12.71941406 1.95363281 -13.81382812 2.03226563 -14.94140625 2.11328125 C-20.23311491 2.53020375 -25.04508778 2.93110683 -30 5 C-30.33 4.01 -30.66 3.02 -31 2 C-20.76764179 -0.62849569 -10.47323215 -0.18464072 0 0 Z " fill="#B6C7D9" transform="translate(272,143)"/>
<path d="M0 0 C0.66 1.32 1.32 2.64 2 4 C0.12616097 4.79441072 -1.74912886 5.58539974 -3.625 6.375 C-4.66914063 6.81585938 -5.71328125 7.25671875 -6.7890625 7.7109375 C-9.82903202 8.93136322 -12.88205905 9.9981391 -16 11 C-12.92486954 7.62631319 -9.71481144 5.49098038 -5.75 3.25 C-4.67234375 2.63640625 -3.5946875 2.0228125 -2.484375 1.390625 C-1.66453125 0.93171875 -0.8446875 0.4728125 0 0 Z " fill="#6C6D6D" transform="translate(218,164)"/>
<path d="M0 0 C5.43614072 2.7832093 9.93265026 5.40783094 14 10 C9 8.33333333 4 6.66666667 -1 5 C-0.67 3.35 -0.34 1.7 0 0 Z " fill="#374B69" transform="translate(297,144)"/>
<path d="M0 0 C0 2.64 0 5.28 0 8 C-2 7 -2 7 -3 4.5625 C-6.1000006 0.59062423 -10.18553501 0.60519541 -15 0 C-15 -0.33 -15 -0.66 -15 -1 C-9.67748795 -1.95805217 -4.96692338 -2.48346169 0 0 Z " fill="#475A7B" transform="translate(214,240)"/>
<path d="M0 0 C0.33 0 0.66 0 1 0 C1.04938628 4.23582327 1.08571263 8.47149465 1.10986328 12.70751953 C1.11992963 14.14895547 1.1335838 15.59037095 1.15087891 17.03173828 C1.17510012 19.10193934 1.18647641 21.17187076 1.1953125 23.2421875 C1.20578613 24.4885498 1.21625977 25.73491211 1.22705078 27.01904297 C1 30 1 30 -1 32 C-3.125 31.625 -3.125 31.625 -5 31 C-3.625 29.5 -3.625 29.5 -2 28 C-1.34 28 -0.68 28 0 28 C0 18.76 0 9.52 0 0 Z " fill="#BDCDE1" transform="translate(394,240)"/>
<path d="M0 0 C0.33 0 0.66 0 1 0 C1.62583106 9.76991826 1.62583106 9.76991826 -0.8125 14.5625 C-3 17 -3 17 -6 19 C-6 18.34 -6 17.68 -6 17 C-6.66 17 -7.32 17 -8 17 C-7.505 15.515 -7.505 15.515 -7 14 C-5.02 14.495 -5.02 14.495 -3 15 C-3.33 14.01 -3.66 13.02 -4 12 C-3.34 12 -2.68 12 -2 12 C-1.34 8.04 -0.68 4.08 0 0 Z " fill="#203F67" transform="translate(351,250)"/>
<path d="M0 0 C0.33 0.66 0.66 1.32 1 2 C-0.30324219 2.39832031 -0.30324219 2.39832031 -1.6328125 2.8046875 C-2.78523438 3.15789062 -3.93765625 3.51109375 -5.125 3.875 C-6.83042969 4.39707031 -6.83042969 4.39707031 -8.5703125 4.9296875 C-11.72751664 5.91496533 -14.86627606 6.94272536 -18 8 C-18 7.01 -18 6.02 -18 5 C-17.13375 4.731875 -16.2675 4.46375 -15.375 4.1875 C-11.9879199 3.09527414 -11.9879199 3.09527414 -9 1.375 C-5.726905 -0.12516854 -3.55560695 -0.25397192 0 0 Z " fill="#284368" transform="translate(237,145)"/>
<path d="M0 0 C0.33 0 0.66 0 1 0 C1.375 3.25 1.375 3.25 1 7 C-2.331018 9.94369032 -5.51237472 11.75068748 -10 12 C-10.66 11.34 -11.32 10.68 -12 10 C-10.02 9.01 -8.04 8.02 -6 7 C-6 7.66 -6 8.32 -6 9 C-2.91910327 6.22719294 -1.31224548 3.93673644 0 0 Z " fill="#2B4267" transform="translate(215,260)"/>
<path d="M0 0 C1.20655614 3.48200765 0.78332187 5.64537606 -0.3125 9.125 C-0.57675781 9.99382812 -0.84101563 10.86265625 -1.11328125 11.7578125 C-2 14 -2 14 -4 16 C-4.66 15.67 -5.32 15.34 -6 15 C-4.36041242 9.76727367 -2.61047965 4.84803364 0 0 Z " fill="#395170" transform="translate(369,242)"/>
<path d="M0 0 C0.5775 0.763125 1.155 1.52625 1.75 2.3125 C5.19053586 6.42202894 7.64638391 8.25644221 13 9 C13 9.33 13 9.66 13 10 C8.46324303 10.17791204 5.092225 10.0461125 1 8 C0 7 0 7 -0.0625 3.4375 C-0.041875 2.303125 -0.02125 1.16875 0 0 Z " fill="#3D5171" transform="translate(124,263)"/>
<path d="M0 0 C0.33 0.66 0.66 1.32 1 2 C-2.625 7.875 -2.625 7.875 -6 9 C-6.66 9.66 -7.32 10.32 -8 11 C-8.66 10.01 -9.32 9.02 -10 8 C-6.7 5.36 -3.4 2.72 0 0 Z " fill="#27446D" transform="translate(171,149)"/>
<path d="M0 0 C2.31 0 4.62 0 7 0 C7 1.65 7 3.3 7 5 C6.01 5.33 5.02 5.66 4 6 C3.67 6.66 3.34 7.32 3 8 C2.34 8 1.68 8 1 8 C0.67 5.36 0.34 2.72 0 0 Z " fill="#183B66" transform="translate(154,239)"/>
<path d="M0 0 C1.32 0 2.64 0 4 0 C3.67 0.99 3.34 1.98 3 3 C2.91760831 4.84610532 2.89256641 6.69505164 2.90234375 8.54296875 C2.90556641 9.61611328 2.90878906 10.68925781 2.91210938 11.79492188 C2.92048828 12.91447266 2.92886719 14.03402344 2.9375 15.1875 C2.94201172 16.31865234 2.94652344 17.44980469 2.95117188 18.61523438 C2.96296502 21.41020927 2.9794235 24.2050782 3 27 C2.34 27.33 1.68 27.66 1 28 C0.67 18.76 0.34 9.52 0 0 Z " fill="#1B3A61" transform="translate(301,239)"/>
<path d="M0 0 C0.66 0.33 1.32 0.66 2 1 C1.67 4.63 1.34 8.26 1 12 C0.01 11.67 -0.98 11.34 -2 11 C-2.33 8.03 -2.66 5.06 -3 2 C-2.01 1.34 -1.02 0.68 0 0 Z " fill="#113D6E" transform="translate(187,247)"/>
<path d="M0 0 C0.66 0 1.32 0 2 0 C2.3259574 3.01510598 2.43138108 4.46077366 0.5 6.875 C-3.32700131 8.59715059 -5.91891566 7.86973928 -10 7 C-10.33 6.34 -10.66 5.68 -11 5 C-8.02148438 5.04882812 -8.02148438 5.04882812 -5.04296875 5.09765625 C-2.79694539 5.08263217 -2.79694539 5.08263217 0 4 C0 2.68 0 1.36 0 0 Z " fill="#D6E3ED" transform="translate(139,263)"/>
<path d="M0 0 C0.66 0 1.32 0 2 0 C2 2.31 2 4.62 2 7 C-1.75 8.125 -1.75 8.125 -4 7 C-3.67 5.35 -3.34 3.7 -3 2 C-2.01 2 -1.02 2 0 2 C0 1.34 0 0.68 0 0 Z " fill="#E6ECF2" transform="translate(122,263)"/>
<path d="M0 0 C0.99 0 1.98 0 3 0 C3 2.97 3 5.94 3 9 C1.68 9 0.36 9 -1 9 C-1.33 7.68 -1.66 6.36 -2 5 C-4.97 4.67 -7.94 4.34 -11 4 C-11 3.67 -11 3.34 -11 3 C-9.37536158 2.94604522 -7.75021459 2.90722805 -6.125 2.875 C-5.22007812 2.85179687 -4.31515625 2.82859375 -3.3828125 2.8046875 C-1 3 -1 3 1 5 C1.33 3.68 1.66 2.36 2 1 C1.34 0.67 0.68 0.34 0 0 Z " fill="#D1DCE9" transform="translate(173,237)"/>
<path d="M0 0 C4.16138263 -0.08159574 7.9472484 0.01751476 12 1 C12 2.98 12 4.96 12 7 C11.34 6.67 10.68 6.34 10 6 C10 5.34 10 4.68 10 4 C7.98177083 3.83723958 5.96354167 3.67447917 3.9453125 3.51171875 C2 3 2 3 0 0 Z " fill="#516884" transform="translate(132,237)"/>
<path d="M0 0 C0.90492188 0.30744141 0.90492188 0.30744141 1.828125 0.62109375 C3.02695313 1.02521484 3.02695313 1.02521484 4.25 1.4375 C5.03890625 1.70433594 5.8278125 1.97117187 6.640625 2.24609375 C8.74821988 2.91954708 10.84753973 3.49150595 13 4 C12.67 5.32 12.34 6.64 12 8 C7.44328408 6.48109469 3.68276708 4.04597738 0 1 C0 0.67 0 0.34 0 0 Z " fill="#606060" transform="translate(205,327)"/>
<path d="M0 0 C0.721875 0.391875 1.44375 0.78375 2.1875 1.1875 C1.8575 2.5075 1.5275 3.8275 1.1875 5.1875 C-5.5625 4.4375 -5.5625 4.4375 -7.8125 2.1875 C-3.50480769 -1.0125 -3.50480769 -1.0125 0 0 Z " fill="#585756" transform="translate(292.8125,320.8125)"/>
<path d="M0 0 C1.32 1.32 2.64 2.64 4 4 C-0.50353262 5.75747614 -4.17639811 6.19294408 -9 6 C-6.11964908 3.75972706 -3.15133488 1.83827868 0 0 Z " fill="#324B6D" transform="translate(75,266)"/>
<path d="M0 0 C3.41659491 -0.05816623 6.83306205 -0.09365195 10.25 -0.125 C11.21808594 -0.14175781 12.18617187 -0.15851563 13.18359375 -0.17578125 C14.11816406 -0.18222656 15.05273438 -0.18867188 16.015625 -0.1953125 C16.87446289 -0.20578613 17.73330078 -0.21625977 18.61816406 -0.22705078 C21.17903596 0.01706677 22.79511029 0.71009488 25 2 C23.02 2.99 23.02 2.99 21 4 C20.34 3.34 19.68 2.68 19 2 C16.13720267 1.9069009 13.35691131 1.90617697 10.5 2 C7.64308869 2.09382303 4.86279733 2.0930991 2 2 C1.34 1.34 0.68 0.68 0 0 Z " fill="#435776" transform="translate(51,238)"/>
<path d="M0 0 C1.32 0.66 2.64 1.32 4 2 C4 3.32 4 4.64 4 6 C6.31 6.66 8.62 7.32 11 8 C11 8.66 11 9.32 11 10 C5.06 8.515 5.06 8.515 -1 7 C-0.67 4.69 -0.34 2.38 0 0 Z " fill="#2B466D" transform="translate(284,138)"/>
<path d="M0 0 C2.30143236 3.45214853 2.13833854 4.23479324 1.625 8.1875 C1.51414062 9.08855469 1.40328125 9.98960937 1.2890625 10.91796875 C1.19367188 11.60503906 1.09828125 12.29210937 1 13 C0.01 12.67 -0.98 12.34 -2 12 C-2.17835515 7.45194365 -1.99785435 4.1205746 0 0 Z " fill="#123C6F" transform="translate(423,248)"/>
<path d="M0 0 C4.29 0 8.58 0 13 0 C12.34 0.66 11.68 1.32 11 2 C10.53993654 4.20250992 10.53993654 4.20250992 10.375 6.625 C10.30023438 7.44226563 10.22546875 8.25953125 10.1484375 9.1015625 C10.09945312 9.72804687 10.05046875 10.35453125 10 11 C9.67 11 9.34 11 9 11 C9 8.03 9 5.06 9 2 C7.329375 2.061875 7.329375 2.061875 5.625 2.125 C2 2 2 2 0 0 Z " fill="#374C6E" transform="translate(222,238)"/>
<path d="M0 0 C7.26 0 14.52 0 22 0 C21.67 1.32 21.34 2.64 21 4 C20.34 3.67 19.68 3.34 19 3 C19 2.34 19 1.68 19 1 C17.79601562 1.09539062 16.59203125 1.19078125 15.3515625 1.2890625 C13.77608123 1.40159688 12.20055805 1.51354573 10.625 1.625 C9.8309375 1.68945312 9.036875 1.75390625 8.21875 1.8203125 C6.14971776 1.96058587 4.07374464 1.98758237 2 2 C1.34 1.34 0.68 0.68 0 0 Z " fill="#455A77" transform="translate(317,238)"/>
<path d="M0 0 C0.33 0 0.66 0 1 0 C1 3.63 1 7.26 1 11 C0.01 9.68 -0.98 8.36 -2 7 C-4.0316566 6.31149171 -4.0316566 6.31149171 -6.1875 6.25 C-7.445625 6.1675 -8.70375 6.085 -10 6 C-10 5.67 -10 5.34 -10 5 C-5.545 4.505 -5.545 4.505 -1 4 C-0.67 2.68 -0.34 1.36 0 0 Z " fill="#43566C" transform="translate(172,250)"/>
<path d="M0 0 C2.125 0.375 2.125 0.375 4 1 C3.67 2.65 3.34 4.3 3 6 C2.01 6.33 1.02 6.66 0 7 C-0.66 6.34 -1.32 5.68 -2 5 C-2 2 -2 2 0 0 Z " fill="#EDF4F7" transform="translate(83,265)"/>
<path d="M0 0 C0.99 0.33 1.98 0.66 3 1 C0.03 5.95 0.03 5.95 -3 11 C-3.66 10.67 -4.32 10.34 -5 10 C-5 9.34 -5 8.68 -5 8 C-4.34 8 -3.68 8 -3 8 C-3 6.35 -3 4.7 -3 3 C-2.01 2.67 -1.02 2.34 0 2 C0 1.34 0 0.68 0 0 Z " fill="#28456B" transform="translate(174,187)"/>
<path d="M0 0 C0.66 0.33 1.32 0.66 2 1 C0.59138651 2.01131225 -0.82725453 3.00866767 -2.25 4 C-3.43335938 4.8353125 -3.43335938 4.8353125 -4.640625 5.6875 C-7 7 -7 7 -11 7 C-11 6.34 -11 5.68 -11 5 C-9.21289414 4.13633178 -7.4201535 3.28431406 -5.625 2.4375 C-4.62726563 1.96183594 -3.62953125 1.48617188 -2.6015625 0.99609375 C-1.74304688 0.66738281 -0.88453125 0.33867187 0 0 Z " fill="#3E5167" transform="translate(311,345)"/>
<path d="M0 0 C1.125 3.75 1.125 3.75 0 6 C0.66 6.33 1.32 6.66 2 7 C1.67 7.66 1.34 8.32 1 9 C-0.32 8.67 -1.64 8.34 -3 8 C-3 7.34 -3 6.68 -3 6 C-3.66 5.67 -4.32 5.34 -5 5 C-3.35 3.35 -1.7 1.7 0 0 Z " fill="#555555" transform="translate(301,311)"/>
<path d="M0 0 C1.32 1.32 2.64 2.64 4 4 C3.34 4 2.68 4 2 4 C2 4.66 2 5.32 2 6 C-3.75 4.375 -3.75 4.375 -6 1 C-3.03 1.495 -3.03 1.495 0 2 C0 1.34 0 0.68 0 0 Z " fill="#314A6F" transform="translate(233,266)"/>
<path d="M0 0 C0.33 0.66 0.66 1.32 1 2 C-3.62 2 -8.24 2 -13 2 C-9.07725551 -1.92274449 -5.21953631 -1.08329999 0 0 Z " fill="#1A3C62" transform="translate(287,356)"/>
<path d="M0 0 C5.28 0.99 10.56 1.98 16 3 C16 3.33 16 3.66 16 4 C14.27119018 4.05449838 12.54187288 4.09301688 10.8125 4.125 C9.84957031 4.14820313 8.88664063 4.17140625 7.89453125 4.1953125 C4.87187222 3.9913544 2.73230015 3.26874632 0 2 C0 1.34 0 0.68 0 0 Z " fill="#264061" transform="translate(235,353)"/>
<path d="M0 0 C0.33 0 0.66 0 1 0 C1 1.65 1 3.3 1 5 C3.97 5 6.94 5 10 5 C10 5.33 10 5.66 10 6 C4.06 6.495 4.06 6.495 -2 7 C-2 2 -2 2 0 0 Z " fill="#233E5C" transform="translate(364,256)"/>
<path d="M0 0 C4.62 0 9.24 0 14 0 C12.68 1.65 11.36 3.3 10 5 C9.34 5 8.68 5 8 5 C8 3.68 8 2.36 8 1 C6.576875 1.309375 6.576875 1.309375 5.125 1.625 C4.09375 1.74875 3.0625 1.8725 2 2 C1.34 1.34 0.68 0.68 0 0 Z " fill="#435575" transform="translate(298,238)"/>
<path d="M0 0 C1.17539996 0.92652701 2.34010577 1.86663387 3.5 2.8125 C4.1496875 3.33457031 4.799375 3.85664063 5.46875 4.39453125 C7 6 7 6 7 9 C0.42857143 5 0.42857143 5 -1 1 C-0.67 0.67 -0.34 0.34 0 0 Z " fill="#203D5E" transform="translate(184,322)"/>
<path d="M0 0 C1.46726798 3.81489674 0.43336419 6.29011622 -1 10 C-1.33 9.34 -1.66 8.68 -2 8 C-3.32 8.33 -4.64 8.66 -6 9 C-6 7 -6 7 -3.5625 4.5 C-2.716875 3.675 -1.87125 2.85 -1 2 C-0.67 1.34 -0.34 0.68 0 0 Z " fill="#4F617F" transform="translate(177,262)"/>
<path d="M0 0 C0.33 0 0.66 0 1 0 C1.1953125 2.01822917 1.390625 4.03645833 1.5859375 6.0546875 C1.86374749 8.22668245 1.86374749 8.22668245 4 10 C3.34 10 2.68 10 2 10 C1.67 10.66 1.34 11.32 1 12 C1 11.01 1 10.02 1 9 C0.34 9 -0.32 9 -1 9 C-1.09765625 2.84765625 -1.09765625 2.84765625 -1 1 C-0.67 0.67 -0.34 0.34 0 0 Z " fill="#173963" transform="translate(112,256)"/>
<path d="M0 0 C0.66 0.33 1.32 0.66 2 1 C1.6875 4.375 1.6875 4.375 1 8 C-2 10 -2 10 -5 10 C-5 9.34 -5 8.68 -5 8 C-4.01 7.67 -3.02 7.34 -2 7 C-0.77030122 3.48809191 -0.77030122 3.48809191 0 0 Z " fill="#143B6A" transform="translate(83,252)"/>
<path d="M0 0 C0.66 0 1.32 0 2 0 C1.54177532 3.46941546 1.10868317 6.67395049 0 10 C-0.66 10 -1.32 10 -2 10 C-2.17942163 6.05272412 -2.09350689 3.4019487 0 0 Z " fill="#25436B" transform="translate(164,203)"/>
<path d="M0 0 C-3.1254959 2.64465038 -6.08788267 3.84414715 -10 5 C-10.33 4.34 -10.66 3.68 -11 3 C-8.21756596 -1.17365106 -4.53441502 -0.22300402 0 0 Z " fill="#2B4A6D" transform="translate(292,358)"/>
<path d="M0 0 C1.27099045 3.81297136 0.45398157 5.3267834 -1 9 C-1.99 10.485 -1.99 10.485 -3 12 C-3.66 11.67 -4.32 11.34 -5 11 C-3.35 7.37 -1.7 3.74 0 0 Z " fill="#2D476C" transform="translate(131,194)"/>
<path d="M0 0 C0.53625 0.639375 1.0725 1.27875 1.625 1.9375 C4.44367193 4.38529404 6.33860732 4.66714612 10 5 C10 5.33 10 5.66 10 6 C5.71 6 1.42 6 -3 6 C-2.01 5.34 -1.02 4.68 0 4 C0 2.68 0 1.36 0 0 Z " fill="#455873" transform="translate(290,266)"/>
<path d="M0 0 C2.97 0 5.94 0 9 0 C8.67 0.66 8.34 1.32 8 2 C5.11788698 2.96070434 3.30149956 3.10581883 0.3125 3.0625 C-0.89986328 3.04896484 -0.89986328 3.04896484 -2.13671875 3.03515625 C-3.05904297 3.01775391 -3.05904297 3.01775391 -4 3 C-2.68 2.67 -1.36 2.34 0 2 C0 1.34 0 0.68 0 0 Z " fill="#DDEEF4" transform="translate(406,267)"/>
<path d="M0 0 C0.66 0.33 1.32 0.66 2 1 C2.625 4.0625 2.625 4.0625 3 7 C1.35 7 -0.3 7 -2 7 C-2.33 6.01 -2.66 5.02 -3 4 C-1.5625 1.8125 -1.5625 1.8125 0 0 Z " fill="#1B3C63" transform="translate(288,264)"/>
<path d="M0 0 C3 3 3 3 3.375 6 C3 9 3 9 0 12 C0 8.04 0 4.08 0 0 Z " fill="#D1E2EF" transform="translate(106,241)"/>
<path d="M0 0 C0.7734375 0.7115625 0.7734375 0.7115625 1.5625 1.4375 C4.66782675 3.42809407 7.36632504 3.65060818 11 4 C11 4.33 11 4.66 11 5 C7.04 5 3.08 5 -1 5 C-0.67 3.35 -0.34 1.7 0 0 Z " fill="#1D3A5D" transform="translate(378,267)"/>
<path d="M0 0 C0.33 2.64 0.66 5.28 1 8 C0.01 8 -0.98 8 -2 8 C-2.66 6.02 -3.32 4.04 -4 2 C-1 0 -1 0 0 0 Z " fill="#163B6B" transform="translate(82,243)"/>
<path d="M0 0 C1.32 0.66 2.64 1.32 4 2 C2.95125002 4.62187494 2.35068687 5.79371361 -0.125 7.25 C-0.74375 7.4975 -1.3625 7.745 -2 8 C-1.125 2.25 -1.125 2.25 0 0 Z " fill="#28466D" transform="translate(201,157)"/>
<path d="M0 0 C1.98 0 3.96 0 6 0 C2.87567603 2.52349243 -0.38060496 4.27256146 -4 6 C-4.33 5.34 -4.66 4.68 -5 4 C-4.0409375 3.8453125 -4.0409375 3.8453125 -3.0625 3.6875 C-2.381875 3.460625 -1.70125 3.23375 -1 3 C-0.67 2.01 -0.34 1.02 0 0 Z " fill="#E3F0F8" transform="translate(181,140)"/>
<path d="M0 0 C2.93200474 2.85276137 5.64315404 5.65079784 8 9 C6.35 8.67 4.7 8.34 3 8 C2.67 6.35 2.34 4.7 2 3 C1.34 3 0.68 3 0 3 C0 2.01 0 1.02 0 0 Z " fill="#324A68" transform="translate(176,312)"/>
<path d="M0 0 C0.99 0 1.98 0 3 0 C3 0.66 3 1.32 3 2 C3.66 2 4.32 2 5 2 C4.67 2.99 4.34 3.98 4 5 C3.01 5.33 2.02 5.66 1 6 C1 5.01 1 4.02 1 3 C0.01 2.67 -0.98 2.34 -2 2 C-1.34 2 -0.68 2 0 2 C0 1.34 0 0.68 0 0 Z " fill="#20426E" transform="translate(205,154)"/>
<path d="M0 0 C0.66 0 1.32 0 2 0 C2.66 2.64 3.32 5.28 4 8 C3.01 8.495 3.01 8.495 2 9 C0.14223235 5.86501708 -0.20140476 3.62528568 0 0 Z " fill="#2E456D" transform="translate(130,299)"/>
<path d="M0 0 C0.33 0 0.66 0 1 0 C1.25 5.625 1.25 5.625 -1 9 C-2.32 8.67 -3.64 8.34 -5 8 C-4.0409375 7.13375 -4.0409375 7.13375 -3.0625 6.25 C-1.01776132 4.01937599 -0.41794801 2.92563609 0 0 Z " fill="#DAEAEE" transform="translate(254,262)"/>
<path d="M0 0 C0.33 0.99 0.66 1.98 1 3 C-0.66666667 4.66666667 -2.33333333 6.33333333 -4 8 C-4.6875 6.1875 -4.6875 6.1875 -5 4 C-3.5625 2.25 -3.5625 2.25 -2 1 C-1.34 1.33 -0.68 1.66 0 2 C0 1.34 0 0.68 0 0 Z " fill="#193C69" transform="translate(421,262)"/>
<path d="M0 0 C1.98 0.99 3.96 1.98 6 3 C5.34 4.32 4.68 5.64 4 7 C2 6 2 6 0 3 C0 2.01 0 1.02 0 0 Z " fill="#2C4673" transform="translate(138,252)"/>
<path d="M0 0 C3.375 0.3125 3.375 0.3125 7 1 C7.66 1.99 8.32 2.98 9 4 C5.37 3.67 1.74 3.34 -2 3 C-1.34 2.01 -0.68 1.02 0 0 Z " fill="#EAF7F8" transform="translate(65,235)"/>
<path d="M0 0 C1 3 1 3 -0.25 6.125 C-2 9 -2 9 -5 10 C-3.66511872 6.40608886 -2.03977277 3.24509304 0 0 Z " fill="#2D456A" transform="translate(137,184)"/>
<path d="M0 0 C0.66 0.33 1.32 0.66 2 1 C-0.475 5.455 -0.475 5.455 -3 10 C-3.66 9.34 -4.32 8.68 -5 8 C-3.35 5.36 -1.7 2.72 0 0 Z " fill="#E3EEF5" transform="translate(134,186)"/>
<path d="M0 0 C0.66 0.33 1.32 0.66 2 1 C-0.31 3.31 -2.62 5.62 -5 8 C-5.66 7.34 -6.32 6.68 -7 6 C-4.69 4.02 -2.38 2.04 0 0 Z " fill="#EFFAFD" transform="translate(155,160)"/>
<path d="M0 0 C0.99 0 1.98 0 3 0 C3 0.66 3 1.32 3 2 C4.65 2.33 6.3 2.66 8 3 C8 3.66 8 4.32 8 5 C4.17902761 4.46930939 1.93828597 3.50298434 -1 1 C-0.67 0.67 -0.34 0.34 0 0 Z " fill="#364D72" transform="translate(182,355)"/>
<path d="M0 0 C0.66 0.33 1.32 0.66 2 1 C1.67 1.99 1.34 2.98 1 4 C1.99 4 2.98 4 4 4 C3.67 4.99 3.34 5.98 3 7 C1.02 5.68 -0.96 4.36 -3 3 C-2.01 2.01 -1.02 1.02 0 0 Z " fill="#314F72" transform="translate(161,338)"/>
<path d="M0 0 C2.375 0.6875 2.375 0.6875 5 2 C6.3125 4.625 6.3125 4.625 7 7 C6.01 7.495 6.01 7.495 5 8 C2.525 4.04 2.525 4.04 0 0 Z " fill="#2D456D" transform="translate(139,318)"/>
<path d="M0 0 C0.99 0 1.98 0 3 0 C3.99 2.31 4.98 4.62 6 7 C5.01 7 4.02 7 3 7 C0 2.77777778 0 2.77777778 0 0 Z " fill="#2F4A6D" transform="translate(164,294)"/>
<path d="M0 0 C1.98 0 3.96 0 6 0 C5.01 0.33 4.02 0.66 3 1 C3 3.31 3 5.62 3 8 C1.0549 5.08235 0.54723683 3.37462715 0 0 Z " fill="#2D4366" transform="translate(126,292)"/>
<path d="M0 0 C0.66 1.32 1.32 2.64 2 4 C0.1875 5.5625 0.1875 5.5625 -2 7 C-2.99 6.67 -3.98 6.34 -5 6 C-3.35 4.02 -1.7 2.04 0 0 Z " fill="#334D73" transform="translate(148,169)"/>
<path d="M0 0 C0.33 0 0.66 0 1 0 C1.33 1.98 1.66 3.96 2 6 C1.01 6 0.02 6 -1 6 C-2.6875 4 -2.6875 4 -4 2 C-2.68 2 -1.36 2 0 2 C0 1.34 0 0.68 0 0 Z " fill="#314B73" transform="translate(157,333)"/>
<path d="M0 0 C-3.20380017 2.13586678 -4.01939967 2.23132175 -7.6875 2.125 C-8.89986328 2.09792969 -8.89986328 2.09792969 -10.13671875 2.0703125 C-11.05904297 2.03550781 -11.05904297 2.03550781 -12 2 C-12 1.67 -12 1.34 -12 1 C-3.96428571 -1.27678571 -3.96428571 -1.27678571 0 0 Z " fill="#293D5D" transform="translate(143,270)"/>
<path d="M0 0 C2 2 2 2 2 6 C0.0625 5.625 0.0625 5.625 -2 5 C-2.33 4.34 -2.66 3.68 -3 3 C-2.34 3 -1.68 3 -1 3 C-0.67 2.01 -0.34 1.02 0 0 Z " fill="#123A68" transform="translate(143,256)"/>
<path d="M0 0 C0.99 0.66 1.98 1.32 3 2 C2.67 2.66 2.34 3.32 2 4 C1.34 4 0.68 4 0 4 C-0.33 4.99 -0.66 5.98 -1 7 C-1.33 5.02 -1.66 3.04 -2 1 C-1.34 0.67 -0.68 0.34 0 0 Z " fill="#304D73" transform="translate(418,240)"/>
<path d="M0 0 C1.98 0 3.96 0 6 0 C5.67 1.32 5.34 2.64 5 4 C3.35 4 1.7 4 0 4 C0 2.68 0 1.36 0 0 Z " fill="#5F615E" transform="translate(248,154)"/>
<path d="M0 0 C0.99 0.66 1.98 1.32 3 2 C2.67 2.66 2.34 3.32 2 4 C-0.5625 4.625 -0.5625 4.625 -3 5 C-3.33 4.01 -3.66 3.02 -4 2 C-2.68 1.34 -1.36 0.68 0 0 Z " fill="#28456C" transform="translate(178,145)"/>
<path d="M0 0 C-1.0625 1.5 -1.0625 1.5 -3 3 C-6.6875 3.1875 -6.6875 3.1875 -10 3 C-6.88378718 -0.11621282 -4.21175599 -0.11383124 0 0 Z " fill="#324A6A" transform="translate(204,135)"/>
<path d="M0 0 C1.65 0 3.3 0 5 0 C4.67 1.32 4.34 2.64 4 4 C2.68 3.67 1.36 3.34 0 3 C0 2.01 0 1.02 0 0 Z " fill="#FAFEEF" transform="translate(242,264)"/>
<path d="M0 0 C1.89213369 2.38573379 3.02391783 4.07175348 4 7 C1.53199953 5.84826645 -0.04783565 4.95216435 -2 3 C-1.34 2.01 -0.68 1.02 0 0 Z " fill="#5A5957" transform="translate(348,207)"/>
<path d="M0 0 C0.33 0 0.66 0 1 0 C1.3125 2.25 1.3125 2.25 1 5 C-1.5 7.3125 -1.5 7.3125 -4 9 C-2.80100302 5.9168649 -1.52299523 2.93720508 0 0 Z " fill="#D9E8F1" transform="translate(172,194)"/>
<path d="M0 0 C0.66 0.33 1.32 0.66 2 1 C-1.465 3.97 -1.465 3.97 -5 7 C-5 5.68 -5 4.36 -5 3 C-4.01 3 -3.02 3 -2 3 C-2 2.34 -2 1.68 -2 1 C-1.34 0.67 -0.68 0.34 0 0 Z " fill="#21385E" transform="translate(192,168)"/>
<path d="M0 0 C0.66 0.33 1.32 0.66 2 1 C0.50260417 2.23697917 -0.99479167 3.47395833 -2.4921875 4.7109375 C-3.71051161 5.75250992 -4.86660097 6.86660097 -6 8 C-5.65120368 4.74456771 -4.97866739 3.98126893 -2.4375 1.75 C-1.633125 1.1725 -0.82875 0.595 0 0 Z " fill="#E5F2F9" transform="translate(201,163)"/>
<path d="M0 0 C0.66 0 1.32 0 2 0 C1.75 1.875 1.75 1.875 1 4 C-1.0625 5.25 -1.0625 5.25 -3 6 C-2.42655063 3.13275314 -2.1385485 2.1385485 0 0 Z " fill="#2C446C" transform="translate(155,162)"/>
</svg>
